<?xml version="1.0" standalone="no"?>
<!DOCTYPE svg PUBLIC "-//W3C//DTD SVG 20010904//EN"
 "http://www.w3.org/TR/2001/REC-SVG-20010904/DTD/svg10.dtd">
<svg version="1.0" xmlns="http://www.w3.org/2000/svg"
 width="512.000000pt" height="512.000000pt" viewBox="0 0 512.000000 512.000000"
 preserveAspectRatio="xMidYMid meet">
<metadata>
Created by potrace 1.14, written by Peter Selinger 2001-2017
</metadata>
<g transform="translate(0.000000,512.000000) scale(0.100000,-0.100000)"
fill="#000000" stroke="none">
<path d="M2379 5106 c-2 -2 -38 -7 -79 -10 -292 -24 -626 -124 -917 -276 -241
-125 -422 -258 -623 -460 -246 -245 -416 -496 -548 -808 -101 -237 -143 -400
-191 -742 -9 -66 -7 -475 2 -520 3 -14 8 -49 11 -78 24 -229 118 -532 242
-782 350 -706 1001 -1209 1774 -1369 30 -7 71 -14 90 -17 19 -2 44 -7 55 -9
93 -20 463 -27 629 -12 49 4 92 10 95 11 3 2 29 7 56 11 135 18 365 81 527
146 579 231 1060 672 1339 1230 77 154 170 405 195 524 2 11 7 34 11 50 4 17
7 32 8 35 2 9 18 95 21 115 2 11 6 34 8 50 29 180 29 569 0 730 -62 358 -140
590 -288 860 -119 217 -252 393 -445 585 -390 388 -902 643 -1437 716 -27 3
-60 8 -74 10 -32 6 -456 14 -461 10z m436 -338 c39 -5 113 -18 165 -29 52 -11
106 -22 120 -25 319 -63 666 -236 953 -476 219 -183 463 -500 578 -754 178
-394 248 -872 184 -1264 -13 -78 -19 -106 -46 -215 -42 -167 -64 -235 -109
-341 -55 -129 -149 -300 -203 -369 -4 -5 -25 -35 -47 -65 -22 -30 -43 -59 -47
-65 -72 -91 -101 -123 -173 -195 -47 -47 -107 -103 -134 -125 -27 -22 -54 -46
-62 -52 -7 -7 -17 -13 -22 -13 -6 0 -12 -3 -14 -8 -8 -19 -191 -141 -308 -205
-60 -33 -232 -110 -270 -122 -3 -1 -36 -11 -73 -23 -128 -41 -379 -97 -487
-110 -176 -20 -508 -6 -656 29 -27 6 -59 13 -72 15 -165 32 -366 100 -529 180
-92 45 -288 164 -336 204 -7 6 -46 37 -88 69 -75 58 -222 200 -285 274 -47 55
-136 174 -180 242 -21 33 -41 62 -44 65 -26 26 -142 268 -180 375 -30 87 -83
282 -95 355 -3 19 -8 42 -10 50 -6 21 -14 66 -22 130 -16 112 -7 518 11 548 2
4 7 28 10 53 11 80 73 321 109 419 65 179 157 351 276 515 82 113 83 115 132
168 26 29 45 56 42 62 -4 5 -3 7 1 4 3 -3 44 30 89 74 45 44 134 119 197 166
112 85 291 201 309 201 4 0 19 8 32 18 13 10 60 33 104 51 44 18 94 39 111 47
40 18 258 80 305 88 20 3 42 8 50 10 25 9 214 42 279 49 73 7 368 4 435 -5z"/>
<path d="M2365 4499 c-51 -7 -156 -23 -218 -35 -10 -2 -27 -6 -37 -9 -10 -3
-27 -8 -38 -10 -90 -17 -292 -95 -418 -161 -157 -82 -244 -140 -244 -165 0
-11 20 -120 44 -242 25 -122 48 -238 51 -257 3 -19 10 -53 15 -75 5 -22 21
-98 34 -170 34 -178 33 -170 51 -265 9 -47 19 -94 21 -105 3 -11 10 -47 17
-80 l13 -60 29 120 c16 66 30 125 31 130 2 6 5 19 8 30 17 72 113 463 141 576
19 74 36 146 39 160 8 47 57 234 65 254 8 19 18 20 240 19 132 0 235 -4 240
-10 7 -7 29 -94 66 -259 2 -11 14 -60 26 -110 11 -49 22 -97 24 -105 6 -27
125 -533 157 -669 l32 -134 23 109 c13 60 26 123 29 139 3 17 25 131 50 255
25 124 47 236 50 250 2 14 13 68 24 120 24 117 30 147 36 185 3 17 9 46 14 65
5 19 12 55 15 79 13 93 -7 86 249 85 124 0 228 -2 230 -5 3 -3 -21 -108 -54
-235 -33 -126 -92 -353 -131 -504 -39 -151 -72 -277 -74 -281 -2 -3 -7 -19
-10 -35 -3 -16 -14 -63 -25 -104 -12 -41 -22 -82 -24 -90 -2 -9 -23 -87 -46
-175 -23 -88 -44 -169 -46 -180 -2 -11 -12 -50 -23 -88 l-18 -67 53 -163 c230
-700 310 -935 315 -929 4 4 14 34 22 67 8 33 29 110 45 170 16 61 71 265 122
455 51 190 93 346 95 348 4 4 286 -70 386 -102 l36 -11 -32 -120 c-61 -225
-105 -390 -110 -410 -2 -11 -13 -54 -25 -95 -12 -41 -44 -158 -71 -260 -28
-102 -57 -210 -65 -240 -8 -30 -17 -62 -19 -70 -2 -8 -6 -28 -11 -44 l-7 -29
49 34 c68 47 300 281 357 359 26 36 51 70 55 75 77 102 192 328 246 485 42
124 77 279 93 410 15 130 8 431 -13 533 -2 12 -6 34 -9 49 -56 303 -202 615
-409 873 -122 153 -322 327 -506 441 -93 58 -337 174 -365 174 -8 0 -23 4 -33
10 -27 15 -208 64 -277 75 -11 2 -54 8 -95 15 -88 14 -398 20 -485 9z"/>
<path d="M995 3742 c-196 -264 -308 -508 -371 -802 -31 -146 -39 -231 -39
-405 0 -157 9 -256 31 -360 9 -38 17 -78 19 -88 52 -244 199 -547 375 -768 90
-113 377 -379 409 -379 5 0 11 -4 13 -9 2 -5 51 -38 109 -73 205 -124 456
-218 689 -257 36 -6 81 -13 100 -17 19 -3 116 -7 215 -8 160 -3 271 5 390 28
17 3 41 8 55 11 75 14 200 50 200 58 0 10 -97 312 -110 342 -5 11 -68 200
-141 420 -72 220 -134 403 -138 407 -6 7 -75 -239 -203 -722 -84 -318 -85
-321 -111 -311 -12 5 -103 30 -202 56 -99 26 -183 51 -188 54 -4 4 -1 29 8 57
8 27 21 74 28 104 8 30 90 332 181 671 91 339 166 625 166 636 0 21 -106 466
-117 493 -3 8 -5 19 -4 24 1 4 -3 22 -8 40 -6 17 -12 42 -15 56 -2 14 -30 126
-60 250 -31 124 -58 236 -61 249 -2 13 -6 25 -7 27 -4 3 -122 -462 -124 -486
-1 -8 -4 -22 -7 -30 -6 -15 -95 -356 -103 -395 -2 -11 -17 -69 -32 -130 l-28
-110 -265 -3 -264 -2 -30 112 c-16 62 -30 118 -31 123 -3 16 -74 295 -89 350
-8 28 -53 205 -100 395 -98 393 -106 420 -114 420 -3 0 -15 -13 -26 -28z"/>
</g>
</svg>
