<?xml version="1.0" encoding="utf-8"?>
<!-- Generator: Adobe Illustrator 24.0.1, SVG Export Plug-In . SVG Version: 6.00 Build 0)  -->
<!DOCTYPE svg PUBLIC "-//W3C//DTD SVG 1.1//EN" "http://www.w3.org/Graphics/SVG/1.1/DTD/svg11.dtd" [
	<!ENTITY ns_extend "http://ns.adobe.com/Extensibility/1.0/">
	<!ENTITY ns_ai "http://ns.adobe.com/AdobeIllustrator/10.0/">
	<!ENTITY ns_graphs "http://ns.adobe.com/Graphs/1.0/">
	<!ENTITY ns_vars "http://ns.adobe.com/Variables/1.0/">
	<!ENTITY ns_imrep "http://ns.adobe.com/ImageReplacement/1.0/">
	<!ENTITY ns_sfw "http://ns.adobe.com/SaveForWeb/1.0/">
	<!ENTITY ns_custom "http://ns.adobe.com/GenericCustomNamespace/1.0/">
	<!ENTITY ns_adobe_xpath "http://ns.adobe.com/XPath/1.0/">
]>
<svg version="1.1" id="Layer_1" xmlns:x="&ns_extend;" xmlns:i="&ns_ai;" xmlns:graph="&ns_graphs;"
	 xmlns="http://www.w3.org/2000/svg" xmlns:xlink="http://www.w3.org/1999/xlink" x="0px" y="0px" viewBox="0 0 262.9 102.3"
	 style="enable-background:new 0 0 262.9 102.3;" xml:space="preserve">
<style type="text/css">
	.st0{fill:#FFFFFF;fill-opacity:0;}
	.st1{fill:#FFFFFF;}
</style>
<metadata>
	<sfw  xmlns="&ns_sfw;">
		<slices></slices>
		<sliceSourceBounds  bottomLeftOrigin="true" height="111" width="272" x="-4.6" y="-4.4"></sliceSourceBounds>
	</sfw>
</metadata>
<rect x="-4.6" y="-4.3" class="st0" width="272" height="111"/>
<g>
	<g>
		<path class="st1" d="M246.2,5c4.4,0,8,3.6,8,8v76.4c0,4.4-3.6,8-8,8H16.7c-4.4,0-8-3.6-8-8V13c0-4.4,3.6-8,8-8H246.2 M246.2,1
			H16.7c-6.6,0-12,5.4-12,12v76.4c0,6.6,5.4,12,12,12h229.5c6.6,0,12-5.4,12-12V13C258.2,6.4,252.8,1,246.2,1L246.2,1z"/>
	</g>
	<g>
		<path class="st1" d="M111.2,25.3c0,2.3-0.8,4.1-2.3,5.3c-1.5,1.2-3.7,1.8-6.5,1.8h-2.3v8.3h-3.6V18.6h6.4c2.8,0,4.8,0.6,6.2,1.7
			C110.5,21.4,111.2,23.1,111.2,25.3z M100.2,29.4h1.9c1.9,0,3.2-0.3,4.1-1s1.3-1.7,1.3-3s-0.4-2.2-1.2-2.8c-0.8-0.6-2-0.9-3.6-0.9
			h-2.5C100.2,21.7,100.2,29.4,100.2,29.4z"/>
		<path class="st1" d="M124.1,23.7c0.7,0,1.3,0.1,1.8,0.2l-0.3,3.3c-0.5-0.1-1-0.2-1.6-0.2c-1.4,0-2.6,0.5-3.5,1.4s-1.3,2.1-1.3,3.6
			v8.7h-3.6V24h2.8l0.5,3h0.2c0.6-1,1.3-1.8,2.2-2.4C122.1,24,123.1,23.7,124.1,23.7z"/>
		<path class="st1" d="M129.2,19.6c0-0.6,0.2-1.1,0.5-1.5c0.3-0.3,0.8-0.5,1.5-0.5c0.6,0,1.1,0.2,1.5,0.5c0.3,0.3,0.5,0.8,0.5,1.5
			c0,0.6-0.2,1.1-0.5,1.4s-0.8,0.5-1.5,0.5c-0.6,0-1.1-0.2-1.5-0.5C129.3,20.6,129.2,20.2,129.2,19.6z M132.9,40.7h-3.6V24h3.6V40.7
			z"/>
		<path class="st1" d="M142.2,40.7L135.9,24h3.8l3.4,9.7c0.6,1.6,0.9,3,1.1,4h0.1c0.1-0.7,0.4-2,1.1-4l3.4-9.7h3.8l-6.4,16.7H142.2z
			"/>
		<path class="st1" d="M165.8,40.7l-0.7-2.3H165c-0.8,1-1.6,1.7-2.4,2.1s-1.9,0.6-3.1,0.6c-1.6,0-2.9-0.4-3.9-1.3
			c-0.9-0.9-1.4-2.1-1.4-3.8s0.6-3,1.9-3.9c1.3-0.9,3.2-1.4,5.9-1.4l2.9-0.1v-0.9c0-1.1-0.3-1.9-0.8-2.4s-1.3-0.8-2.3-0.8
			c-0.9,0-1.7,0.1-2.5,0.4s-1.5,0.6-2.3,0.9l-1.2-2.5c0.9-0.5,1.9-0.8,3-1.1s2.1-0.4,3.1-0.4c2.1,0,3.7,0.5,4.8,1.4s1.6,2.4,1.6,4.4
			v11.3h-2.5V40.7z M160.5,38.3c1.3,0,2.3-0.4,3.1-1.1c0.8-0.7,1.2-1.7,1.2-3v-1.5l-2.1,0.1c-1.7,0.1-2.9,0.3-3.7,0.8
			s-1.1,1.3-1.1,2.3c0,0.7,0.2,1.3,0.7,1.7C159,38,159.7,38.3,160.5,38.3z"/>
		<path class="st1" d="M180.5,41c-2.5,0-4.5-0.7-5.8-2.2s-2-3.6-2-6.4c0-2.8,0.7-5,2.1-6.5c1.4-1.5,3.4-2.3,6-2.3
			c1.8,0,3.4,0.3,4.8,1l-1.1,2.9c-1.5-0.6-2.7-0.9-3.7-0.9c-2.9,0-4.3,1.9-4.3,5.8c0,1.9,0.4,3.3,1.1,4.2c0.7,0.9,1.8,1.4,3.2,1.4
			c1.6,0,3.1-0.4,4.5-1.2V40c-0.6,0.4-1.3,0.6-2,0.8C182.4,41,181.5,41,180.5,41z"/>
		<path class="st1" d="M186.9,24h3.9l3.4,9.5c0.5,1.4,0.9,2.6,1,3.8h0.1c0.1-0.6,0.3-1.2,0.5-2s1.5-4.6,3.8-11.3h3.8l-7.2,19
			c-1.3,3.5-3.5,5.2-6.5,5.2c-0.8,0-1.6-0.1-2.3-0.3v-2.8c0.5,0.1,1.1,0.2,1.8,0.2c1.7,0,2.9-1,3.6-3l0.6-1.6L186.9,24z"/>
		<path class="st1" d="M110.7,64.1c0,2.2-0.8,4-2.3,5.2s-3.7,1.8-6.6,1.8h-2.6v8.7h-2.6V57.5h5.7C108,57.5,110.7,59.8,110.7,64.1z
			 M99.3,68.8h2.3c2.3,0,3.9-0.4,4.9-1.1s1.5-1.9,1.5-3.5c0-1.5-0.5-2.6-1.4-3.3s-2.5-1.1-4.5-1.1h-2.9L99.3,68.8L99.3,68.8z"/>
		<path class="st1" d="M122.9,62.8c0.7,0,1.4,0.1,2,0.2l-0.3,2.3c-0.7-0.2-1.3-0.2-1.8-0.2c-1.3,0-2.5,0.5-3.4,1.6
			c-1,1.1-1.4,2.4-1.4,4.1v8.9h-2.5V63h2.1l0.3,3.1h0.1c0.6-1.1,1.4-1.9,2.2-2.5C120.9,63,121.9,62.8,122.9,62.8z"/>
		<path class="st1" d="M142.7,71.4c0,2.7-0.7,4.8-2,6.3c-1.4,1.5-3.2,2.3-5.6,2.3c-1.5,0-2.8-0.3-4-1s-2-1.7-2.7-3
			c-0.6-1.3-0.9-2.8-0.9-4.6c0-2.7,0.7-4.8,2-6.3c1.4-1.5,3.2-2.3,5.6-2.3c2.3,0,4.2,0.8,5.5,2.3C142,66.6,142.7,68.8,142.7,71.4z
			 M130.1,71.4c0,2.1,0.4,3.7,1.3,4.8c0.8,1.1,2.1,1.7,3.7,1.7s2.9-0.6,3.7-1.7c0.9-1.1,1.3-2.7,1.3-4.9c0-2.1-0.4-3.7-1.3-4.8
			c-0.9-1.1-2.1-1.6-3.8-1.6c-1.6,0-2.9,0.5-3.7,1.6C130.5,67.6,130.1,69.3,130.1,71.4z"/>
		<path class="st1" d="M152.8,77.9c0.4,0,0.9,0,1.3-0.1c0.4-0.1,0.7-0.1,1-0.2v1.9c-0.3,0.1-0.7,0.2-1.2,0.3s-1,0.1-1.4,0.1
			c-3.2,0-4.8-1.7-4.8-5.1V65h-2.4v-1.2l2.4-1l1.1-3.5h1.5v3.8h4.8v2h-4.8v9.8c0,1,0.2,1.8,0.7,2.3S152,77.9,152.8,77.9z"/>
		<path class="st1" d="M165.8,79.9c-2.5,0-4.4-0.7-5.8-2.2s-2.1-3.6-2.1-6.2c0-2.7,0.7-4.8,2-6.4c1.3-1.6,3.1-2.4,5.3-2.4
			c2.1,0,3.7,0.7,4.9,2.1c1.2,1.4,1.8,3.2,1.8,5.4v1.6h-11.4c0.1,1.9,0.5,3.4,1.5,4.4c0.9,1,2.2,1.5,3.9,1.5c1.8,0,3.6-0.4,5.3-1.1
			v2.3c-0.9,0.4-1.7,0.7-2.5,0.8C167.9,79.9,166.9,79.9,165.8,79.9z M165.1,64.9c-1.3,0-2.4,0.4-3.2,1.3c-0.8,0.9-1.3,2.1-1.4,3.6
			h8.7c0-1.6-0.4-2.8-1.1-3.6C167.4,65.4,166.4,64.9,165.1,64.9z"/>
		<path class="st1" d="M183.2,79.9c-2.4,0-4.3-0.7-5.6-2.2s-2-3.6-2-6.3c0-2.8,0.7-4.9,2-6.4c1.3-1.5,3.2-2.3,5.7-2.3
			c0.8,0,1.6,0.1,2.4,0.3c0.8,0.2,1.4,0.4,1.9,0.6l-0.8,2.1c-0.6-0.2-1.2-0.4-1.8-0.6c-0.7-0.1-1.2-0.2-1.7-0.2
			c-3.4,0-5.1,2.2-5.1,6.4c0,2,0.4,3.6,1.2,4.7c0.8,1.1,2,1.6,3.7,1.6c1.4,0,2.8-0.3,4.3-0.9v2.2C186.3,79.6,184.9,79.9,183.2,79.9z
			"/>
		<path class="st1" d="M197.1,77.9c0.4,0,0.9,0,1.3-0.1c0.4-0.1,0.7-0.1,1-0.2v1.9c-0.3,0.1-0.7,0.2-1.2,0.3s-1,0.1-1.4,0.1
			c-3.2,0-4.8-1.7-4.8-5.1V65h-2.4v-1.2l2.4-1l1.1-3.5h1.5v3.8h4.8v2h-4.8v9.8c0,1,0.2,1.8,0.7,2.3S196.2,77.9,197.1,77.9z"/>
		<path class="st1" d="M210,79.9c-2.5,0-4.4-0.7-5.8-2.2c-1.4-1.5-2.1-3.6-2.1-6.2c0-2.7,0.7-4.8,2-6.4c1.3-1.6,3.1-2.4,5.3-2.4
			c2.1,0,3.7,0.7,4.9,2.1c1.2,1.4,1.8,3.2,1.8,5.4v1.6h-11.4c0,1.9,0.5,3.4,1.5,4.4c0.9,1,2.2,1.5,3.9,1.5c1.8,0,3.6-0.4,5.3-1.1
			v2.3c-0.9,0.4-1.7,0.7-2.5,0.8C212.1,79.9,211.1,79.9,210,79.9z M209.3,64.9c-1.3,0-2.4,0.4-3.2,1.3c-0.8,0.9-1.3,2.1-1.4,3.6h8.7
			c0-1.6-0.4-2.8-1.1-3.6C211.6,65.4,210.6,64.9,209.3,64.9z"/>
		<path class="st1" d="M232.1,77.4H232c-1.2,1.7-2.9,2.5-5.2,2.5c-2.2,0-3.9-0.7-5.1-2.2c-1.2-1.5-1.8-3.6-1.8-6.3
			c0-2.7,0.6-4.9,1.8-6.4c1.2-1.5,2.9-2.3,5.1-2.3c2.3,0,4,0.8,5.2,2.5h0.2l-0.1-1.2l-0.1-1.2v-6.8h2.5v23.6h-2L232.1,77.4z
			 M227,77.9c1.7,0,3-0.5,3.7-1.4c0.8-0.9,1.2-2.4,1.2-4.5v-0.5c0-2.4-0.4-4-1.2-5s-2-1.5-3.7-1.5c-1.5,0-2.6,0.6-3.4,1.7
			c-0.8,1.1-1.2,2.8-1.2,4.9c0,2.1,0.4,3.7,1.2,4.8C224.4,77.4,225.5,77.9,227,77.9z"/>
	</g>
	<g>
		<path class="st1" d="M56,55.2c-2.2,0-4,1.8-4,4c0,1.4,0.8,2.8,2,3.5v4.1c0,1,0.9,1.9,1.9,1.9s1.9-0.9,1.9-1.9v-4.1
			c1.3-0.7,2-2,2-3.5C59.9,57,58.1,55.2,56,55.2z"/>
	</g>
	<g>
		<g>
			<path class="st1" d="M75.2,44.1h-2.3v-7.6c0-9.4-7.6-16.9-16.9-16.9s-16.9,7.6-16.9,16.9v7.6h-2.3c-3.2,0-5.8,2.5-5.8,5.8v24.2
				c0,3.2,2.5,5.8,5.8,5.8h38.5c3.2,0,5.8-2.5,5.8-5.8V49.9C81,46.7,78.5,44.1,75.2,44.1z M43.3,44.1v-7.6c0-7,5.8-12.7,12.7-12.7
				s12.7,5.8,12.7,12.7v7.6H43.3z M76.8,49.9v24.2c0,0.9-0.7,1.5-1.5,1.5H36.6c-0.9,0-1.5-0.7-1.5-1.5V49.9c0-0.9,0.7-1.5,1.5-1.5
				h38.6C76.1,48.3,76.8,49,76.8,49.9z"/>
		</g>
	</g>
</g>
</svg>
