<?xml version="1.0" encoding="utf-8"?>
<!-- Generator: Adobe Illustrator 24.0.1, SVG Export Plug-In . SVG Version: 6.00 Build 0)  -->
<!DOCTYPE svg PUBLIC "-//W3C//DTD SVG 1.1//EN" "http://www.w3.org/Graphics/SVG/1.1/DTD/svg11.dtd" [
	<!ENTITY ns_extend "http://ns.adobe.com/Extensibility/1.0/">
	<!ENTITY ns_ai "http://ns.adobe.com/AdobeIllustrator/10.0/">
	<!ENTITY ns_graphs "http://ns.adobe.com/Graphs/1.0/">
	<!ENTITY ns_vars "http://ns.adobe.com/Variables/1.0/">
	<!ENTITY ns_imrep "http://ns.adobe.com/ImageReplacement/1.0/">
	<!ENTITY ns_sfw "http://ns.adobe.com/SaveForWeb/1.0/">
	<!ENTITY ns_custom "http://ns.adobe.com/GenericCustomNamespace/1.0/">
	<!ENTITY ns_adobe_xpath "http://ns.adobe.com/XPath/1.0/">
]>
<svg version="1.1" id="Layer_1" xmlns:x="&ns_extend;" xmlns:i="&ns_ai;" xmlns:graph="&ns_graphs;"
	 xmlns="http://www.w3.org/2000/svg" xmlns:xlink="http://www.w3.org/1999/xlink" x="0px" y="0px" viewBox="0 0 262.9 102.3"
	 style="enable-background:new 0 0 262.9 102.3;" xml:space="preserve">
<style type="text/css">
	.st0{opacity:0;fill:#FFFFFF;}
	.st1{fill:#FFFFFF;}
</style>
<metadata>
	<sfw  xmlns="&ns_sfw;">
		<slices></slices>
		<sliceSourceBounds  bottomLeftOrigin="true" height="416.8" width="1392.3" x="-285.3" y="-310.5"></sliceSourceBounds>
	</sfw>
</metadata>
<rect x="-3" y="-4" class="st0" width="272" height="111"/>
<g>
	<g>
		<path class="st1" d="M246.2,5c4.4,0,8,3.6,8,8v76.4c0,4.4-3.6,8-8,8H16.7c-4.4,0-8-3.6-8-8V13c0-4.4,3.6-8,8-8H246.2 M246.2,1
			H16.7c-6.6,0-12,5.4-12,12v76.4c0,6.6,5.4,12,12,12h229.5c6.6,0,12-5.4,12-12V13C258.2,6.4,252.8,1,246.2,1L246.2,1z"/>
	</g>
	<g>
		<g>
			<g>
				<g>
					<g>
						<g>
							<path class="st1" d="M80,32.9L56.6,20.4c-0.7-0.3-1.4-0.3-2.1,0L31.8,32.9c-0.7,0.3-1.2,1.1-1.2,1.9v14.3
								c0,13.8,8.2,26.2,20.8,31.8l3.2,1.4c0.2,0.1,0.6,0.2,0.8,0.2s0.6-0.1,0.8-0.2l3.5-1.5c12.9-5.5,21.2-18,21.2-32v-14
								C81,34.1,80.7,33.2,80,32.9z M57.8,77.1l-2.3,1.1l-2.3-1.1c-11-4.8-18.3-15.8-18.3-27.9v-13l20.6-11.3l21.2,11.3V49
								c0,12.2-7.3,23.1-18.5,28L57.8,77.1L57.8,77.1z"/>
						</g>
					</g>
				</g>
			</g>
			<g>
				<g>
					<g>
						<g>
							<path class="st1" d="M68.7,45c0.1-0.6-0.1-1.2-0.4-1.7c-0.7-0.9-2.1-1.1-3-0.3L52.6,53.4l-4.7-5.6c-0.8-0.9-2.1-1.1-3-0.2
								c-0.4,0.3-0.7,0.9-0.7,1.5c0,0.7,0.1,1.2,0.4,1.7l6.2,7.3l0,0c0.4,0.4,1.1,0.8,1.7,0.8c0.4,0,0.9-0.1,1.4-0.4l14.3-11.7
								C68.4,46.1,68.7,45.5,68.7,45z"/>
						</g>
					</g>
				</g>
			</g>
		</g>
		<g>
			<path class="st1" d="M109.3,36.2c0,2-0.7,3.5-2.1,4.6c-1.4,1.1-3.4,1.7-5.9,1.7c-2.5,0-4.6-0.4-6.1-1.2v-3.4
				c1,0.5,2.1,0.8,3.2,1.1c1.1,0.3,2.2,0.4,3.2,0.4c1.4,0,2.5-0.3,3.2-0.8c0.7-0.5,1-1.3,1-2.2c0-0.8-0.3-1.5-0.9-2.1
				c-0.6-0.6-1.9-1.3-3.9-2c-2-0.8-3.4-1.8-4.3-2.8c-0.8-1-1.2-2.3-1.2-3.8c0-1.8,0.7-3.3,2-4.4c1.3-1.1,3.1-1.6,5.3-1.6
				c2.1,0,4.2,0.5,6.3,1.4l-1.2,3c-2-0.8-3.7-1.2-5.3-1.2c-1.2,0-2.1,0.3-2.7,0.8s-0.9,1.2-0.9,2c0,0.6,0.1,1.1,0.4,1.5
				c0.2,0.4,0.6,0.8,1.2,1.2c0.6,0.4,1.6,0.8,3,1.4c1.6,0.7,2.8,1.3,3.6,1.9c0.8,0.6,1.3,1.2,1.7,2
				C109.2,34.3,109.3,35.2,109.3,36.2z"/>
			<path class="st1" d="M120.9,42.5c-2.6,0-4.6-0.8-6.1-2.3c-1.5-1.5-2.2-3.6-2.2-6.3c0-2.7,0.7-4.9,2-6.4c1.4-1.6,3.2-2.3,5.6-2.3
				c2.2,0,4,0.7,5.2,2c1.3,1.3,1.9,3.2,1.9,5.5v1.9h-11.2c0.1,1.6,0.5,2.9,1.3,3.7c0.8,0.9,2,1.3,3.5,1.3c1,0,1.9-0.1,2.8-0.3
				c0.9-0.2,1.8-0.5,2.7-0.9v2.9c-0.9,0.4-1.7,0.7-2.6,0.9C123.1,42.4,122.1,42.5,120.9,42.5z M120.3,27.8c-1.1,0-2,0.4-2.7,1.1
				c-0.7,0.7-1.1,1.8-1.2,3.1h7.6c0-1.4-0.4-2.4-1-3.1C122.3,28.2,121.4,27.8,120.3,27.8z"/>
			<path class="st1" d="M138.6,42.5c-2.5,0-4.5-0.7-5.8-2.2c-1.3-1.5-2-3.6-2-6.4c0-2.8,0.7-5,2.1-6.5c1.4-1.5,3.4-2.3,6-2.3
				c1.8,0,3.4,0.3,4.8,1l-1.1,2.9c-1.5-0.6-2.7-0.9-3.7-0.9c-2.9,0-4.3,1.9-4.3,5.8c0,1.9,0.4,3.3,1.1,4.2c0.7,0.9,1.8,1.4,3.2,1.4
				c1.6,0,3.1-0.4,4.5-1.2v3.1c-0.6,0.4-1.3,0.6-2,0.8C140.5,42.4,139.6,42.5,138.6,42.5z"/>
			<path class="st1" d="M159.4,42.2l-0.5-2.2h-0.2c-0.5,0.8-1.2,1.4-2.1,1.8c-0.9,0.4-2,0.7-3.1,0.7c-2,0-3.5-0.5-4.5-1.5
				s-1.5-2.5-1.5-4.6V25.4h3.6v10.3c0,1.3,0.3,2.2,0.8,2.9c0.5,0.6,1.3,1,2.5,1c1.5,0,2.6-0.4,3.3-1.3c0.7-0.9,1.1-2.4,1.1-4.5v-8.3
				h3.6v16.7H159.4z"/>
			<path class="st1" d="M176.1,25.1c0.7,0,1.3,0.1,1.8,0.2l-0.3,3.3c-0.5-0.1-1-0.2-1.6-0.2c-1.4,0-2.6,0.5-3.5,1.4
				c-0.9,0.9-1.3,2.1-1.3,3.6v8.7h-3.6V25.4h2.8l0.5,3h0.2c0.6-1,1.3-1.8,2.2-2.4C174.1,25.4,175.1,25.1,176.1,25.1z"/>
			<path class="st1" d="M188.7,42.5c-2.6,0-4.6-0.8-6.1-2.3c-1.5-1.5-2.2-3.6-2.2-6.3c0-2.7,0.7-4.9,2-6.4c1.4-1.6,3.2-2.3,5.6-2.3
				c2.2,0,4,0.7,5.2,2c1.3,1.3,1.9,3.2,1.9,5.5v1.9H184c0.1,1.6,0.5,2.9,1.3,3.7c0.8,0.9,2,1.3,3.5,1.3c1,0,1.9-0.1,2.8-0.3
				c0.9-0.2,1.8-0.5,2.7-0.9v2.9c-0.9,0.4-1.7,0.7-2.6,0.9C190.8,42.4,189.8,42.5,188.7,42.5z M188,27.8c-1.1,0-2,0.4-2.7,1.1
				c-0.7,0.7-1.1,1.8-1.2,3.1h7.6c0-1.4-0.4-2.4-1-3.1C190,28.2,189.2,27.8,188,27.8z"/>
			<path class="st1" d="M106.2,61c-2.4,0-4.4,0.8-5.8,2.4c-1.4,1.6-2.1,3.8-2.1,6.7c0,2.9,0.7,5.1,2,6.7c1.4,1.6,3.3,2.4,5.8,2.4
				c1.5,0,3.3-0.3,5.3-0.8v2.3c-1.5,0.6-3.4,0.9-5.7,0.9c-3.3,0-5.8-1-7.5-3c-1.8-2-2.7-4.8-2.7-8.4c0-2.3,0.4-4.3,1.3-6
				c0.9-1.7,2.1-3,3.7-4c1.6-0.9,3.5-1.4,5.7-1.4c2.3,0,4.3,0.4,6.1,1.3l-1.1,2.2C109.5,61.4,107.9,61,106.2,61z"/>
			<path class="st1" d="M127.6,81.2V70.4c0-1.4-0.3-2.4-0.9-3c-0.6-0.7-1.6-1-2.9-1c-1.7,0-3,0.5-3.8,1.4c-0.8,0.9-1.2,2.5-1.2,4.7
				v8.7h-2.5V57.6h2.5v7.1c0,0.9,0,1.6-0.1,2.1h0.2c0.5-0.8,1.2-1.4,2.1-1.9c0.9-0.5,2-0.7,3.1-0.7c2,0,3.5,0.5,4.6,1.4
				c1,1,1.5,2.5,1.5,4.6v10.8H127.6z"/>
			<path class="st1" d="M142.7,81.5c-2.5,0-4.4-0.7-5.8-2.2c-1.4-1.5-2.1-3.6-2.1-6.2c0-2.7,0.7-4.8,2-6.4c1.3-1.6,3.1-2.4,5.3-2.4
				c2.1,0,3.7,0.7,4.9,2.1c1.2,1.4,1.8,3.2,1.8,5.4v1.6h-11.4c0.1,1.9,0.5,3.4,1.5,4.4c0.9,1,2.2,1.5,3.9,1.5c1.8,0,3.6-0.4,5.3-1.1
				v2.2c-0.9,0.4-1.7,0.7-2.5,0.8C144.7,81.4,143.8,81.5,142.7,81.5z M142,66.4c-1.3,0-2.4,0.4-3.2,1.3c-0.8,0.9-1.3,2.1-1.4,3.6
				h8.7c0-1.6-0.4-2.8-1.1-3.6C144.3,66.8,143.3,66.4,142,66.4z"/>
			<path class="st1" d="M160,81.5c-2.4,0-4.3-0.7-5.6-2.2c-1.3-1.5-2-3.6-2-6.3c0-2.8,0.7-4.9,2-6.4c1.3-1.5,3.2-2.3,5.7-2.3
				c0.8,0,1.6,0.1,2.4,0.3c0.8,0.2,1.4,0.4,1.9,0.6l-0.8,2.1c-0.6-0.2-1.2-0.4-1.8-0.6c-0.7-0.1-1.2-0.2-1.7-0.2
				c-3.4,0-5.1,2.2-5.1,6.4c0,2,0.4,3.6,1.2,4.7c0.8,1.1,2,1.6,3.7,1.6c1.4,0,2.8-0.3,4.3-0.9v2.2C163.1,81.2,161.7,81.5,160,81.5z"
				/>
			<path class="st1" d="M171,72.7c0.4-0.6,1.1-1.4,2-2.4l5.4-5.7h3l-6.7,7.1l7.2,9.5h-3l-5.9-7.8L171,75v6.2h-2.5V57.6h2.5v12.5
				c0,0.6,0,1.4-0.1,2.6H171z"/>
			<path class="st1" d="M199.5,72.9c0,2.7-0.7,4.8-2,6.3c-1.4,1.5-3.2,2.3-5.6,2.3c-1.5,0-2.8-0.3-4-1c-1.2-0.7-2-1.7-2.7-3
				c-0.6-1.3-0.9-2.8-0.9-4.6c0-2.7,0.7-4.8,2-6.3c1.4-1.5,3.2-2.3,5.6-2.3c2.3,0,4.2,0.8,5.5,2.3C198.8,68.1,199.5,70.2,199.5,72.9
				z M186.9,72.9c0,2.1,0.4,3.7,1.3,4.8c0.8,1.1,2.1,1.7,3.7,1.7c1.6,0,2.9-0.6,3.7-1.7c0.9-1.1,1.3-2.7,1.3-4.9
				c0-2.1-0.4-3.7-1.3-4.8c-0.9-1.1-2.1-1.6-3.8-1.6c-1.6,0-2.9,0.5-3.7,1.6C187.3,69.1,186.9,70.7,186.9,72.9z"/>
			<path class="st1" d="M206.6,64.6v10.8c0,1.4,0.3,2.4,0.9,3c0.6,0.7,1.6,1,2.9,1c1.7,0,3-0.5,3.8-1.4c0.8-0.9,1.2-2.5,1.2-4.6
				v-8.7h2.5v16.6h-2.1l-0.4-2.2h-0.1c-0.5,0.8-1.2,1.4-2.1,1.9c-0.9,0.4-2,0.7-3.1,0.7c-2,0-3.5-0.5-4.5-1.4c-1-1-1.5-2.5-1.5-4.6
				V64.6H206.6z"/>
			<path class="st1" d="M229,79.4c0.4,0,0.9,0,1.3-0.1c0.4-0.1,0.7-0.1,1-0.2V81c-0.3,0.1-0.7,0.2-1.2,0.3c-0.5,0.1-1,0.1-1.4,0.1
				c-3.2,0-4.8-1.7-4.8-5.1v-9.9h-2.4v-1.2l2.4-1l1.1-3.5h1.5v3.8h4.8v2h-4.8v9.8c0,1,0.2,1.8,0.7,2.3
				C227.6,79.1,228.2,79.4,229,79.4z"/>
		</g>
	</g>
</g>
</svg>
